{
  "accessors": [
    {
      "bufferView": 1,
      "componentType": 5126,
      "count": 65533,
      "max": [
        1.0606100559234619,
        1.0598399639129639,
        1.0677200555801392
      ],
      "min": [
        -1.0636399984359741,
        -1.0418699979782104,
        -1.0748499631881714
      ],
      "type": "VEC3"
    },
    {
      "bufferView": 1,
      "byteOffset": 786396,
      "componentType": 5126,
      "count": 65533,
      "max": [
        0.99997121095657349,
        0.99998050928115845,
        0.99999016523361206
      ],
      "min": [
        -0.99998348951339722,
        -0.99991679191589355,
        -0.999958336353302
      ],
      "type": "VEC3"
    },
    {
      "bufferView": 0,
      "componentType": 5125,
      "count": 172065,
      "max": [
        65532
      ],
      "min": [
        0
      ],
      "type": "SCALAR"
    },
    {
      "bufferView": 1,
      "byteOffset": 1572792,
      "componentType": 5126,
      "count": 65533,
      "max": [
        1.0784800052642822,
        1.0903600454330444,
        1.0829700231552124
      ],
      "min": [
        -1.0730799436569214,
        -1.0729199647903442,
        -1.065809965133667
      ],
      "type": "VEC3"
    },
    {
      "bufferView": 1,
      "byteOffset": 2359188,
      "componentType": 5126,
      "count": 65533,
      "max": [
        0.99998492002487183,
        0.99999755620956421,
        0.99999278783798218
      ],
      "min": [
        -1,
        -0.99999731779098511,
        -0.99999922513961792
      ],
      "type": "VEC3"
    },
    {
      "bufferView": 0,
      "byteOffset": 688260,
      "componentType": 5125,
      "count": 159780,
      "max": [
        65532
      ],
      "min": [
        0
      ],
      "type": "SCALAR"
    },
    {
      "bufferView": 1,
      "byteOffset": 3145584,
      "componentType": 5126,
      "count": 65532,
      "max": [
        1.0899699926376343,
        1.0721199512481689,
        1.0761200189590454
      ],
      "min": [
        -1.0932999849319458,
        -1.084630012512207,
        -1.0663599967956543
      ],
      "type": "VEC3"
    },
    {
      "bufferView": 1,
      "byteOffset": 3931968,
      "componentType": 5126,
      "count": 65532,
      "max": [
        0.99999171495437622,
        0.99994570016860962,
        0.99998730421066284
      ],
      "min": [
        -0.99998003244400024,
        -0.99999707937240601,
        -0.9999154806137085
      ],
      "type": "VEC3"
    },
    {
      "bufferView": 0,
      "byteOffset": 1327380,
      "componentType": 5125,
      "count": 159813,
      "max": [
        65531
      ],
      "min": [
        0
      ],
      "type": "SCALAR"
    },
    {
      "bufferView": 1,
      "byteOffset": 4718352,
      "componentType": 5126,
      "count": 5978,
      "max": [
        1.0328199863433838,
        1.0133500099182129,
        1.0444200038909912
      ],
      "min": [
        -1.026900053024292,
        -1.0285999774932861,
        -1.0151499509811401
      ],
      "type": "VEC3"
    },
    {
      "bufferView": 1,
      "byteOffset": 4790088,
      "componentType": 5126,
      "count": 5978,
      "max": [
        1,
        1,
        1
      ],
      "min": [
        -1,
        -1,
        -1
      ],
      "type": "VEC3"
    },
    {
      "bufferView": 0,
      "byteOffset": 1966632,
      "componentType": 5125,
      "count": 12318,
      "max": [
        5977
      ],
      "min": [
        0
      ],
      "type": "SCALAR"
    },
    {
      "bufferView": 2,
      "componentType": 5126,
      "count": 361,
      "max": [
        15
      ],
      "min": [
        0
      ],
      "type": "SCALAR"
    },
    {
      "bufferView": 3,
      "componentType": 5126,
      "count": 361,
      "max": [
        0,
        0,
        0.99996000528335571,
        1
      ],
      "min": [
        0,
        0,
        -0.99984997510910034,
        -0.0087299998849630356
      ],
      "type": "VEC4"
    }
  ],
  "animations": [
    {
      "channels": [
        {
          "sampler": 0,
          "target": {
            "node": 5,
            "path": "rotation"
          }
        }
      ],
      "name": "PlaneAction",
      "samplers": [
        {
          "input": 12,
          "interpolation": "LINEAR",
          "output": 13
        }
      ]
    }
  ],
  "asset": {
    "extras": {
      "author": "3DHaupt (https://sketchfab.com/dennish2010)",
      "license": "CC-BY-4.0 (http://creativecommons.org/licenses/by/4.0/)",
      "source": "https://sketchfab.com/models/7b169d7b912447ed9ca1f0a15a1bc178",
      "title": "Burning Cube"
    },
    "generator": "Sketchfab-3.41.1",
    "version": "2.0"
  },
  "bufferViews": [
    {
      "buffer": 0,
      "byteLength": 2015904,
      "byteOffset": 0,
      "name": "floatBufferViews",
      "target": 34963
    },
    {
      "buffer": 0,
      "byteLength": 4861824,
      "byteOffset": 2015904,
      "byteStride": 12,
      "name": "floatBufferViews",
      "target": 34962
    },
    {
      "buffer": 0,
      "byteLength": 1444,
      "byteOffset": 6877728,
      "name": "floatBufferViews"
    },
    {
      "buffer": 0,
      "byteLength": 5776,
      "byteOffset": 6879172,
      "byteStride": 16,
      "name": "floatBufferViews"
    }
  ],
  "buffers": [
    {
      "byteLength": 6884948,
      "uri": "scene.bin"
    }
  ],
  "extensionsRequired": [
    "KHR_materials_pbrSpecularGlossiness"
  ],
  "extensionsUsed": [
    "KHR_materials_pbrSpecularGlossiness"
  ],
  "materials": [
    {
      "alphaMode": "BLEND",
      "doubleSided": false,
      "emissiveFactor": [
        0,
        0,
        0
      ],
      "extensions": {
        "KHR_materials_pbrSpecularGlossiness": {
          "diffuseFactor": [
            1,
            0.21815952229999999,
            0,
            0.10000000000000001
          ],
          "glossinessFactor": 0.52500000000000002,
          "specularFactor": [
            1,
            1,
            1
          ]
        }
      },
      "name": "Material.001"
    }
  ],
  "meshes": [
    {
      "name": "Plane.002_0",
      "primitives": [
        {
          "attributes": {
            "NORMAL": 1,
            "POSITION": 0
          },
          "indices": 2,
          "material": 0,
          "mode": 4
        }
      ]
    },
    {
      "name": "Plane.002_0",
      "primitives": [
        {
          "attributes": {
            "NORMAL": 4,
            "POSITION": 3
          },
          "indices": 5,
          "material": 0,
          "mode": 4
        }
      ]
    },
    {
      "name": "Plane.002_0",
      "primitives": [
        {
          "attributes": {
            "NORMAL": 7,
            "POSITION": 6
          },
          "indices": 8,
          "material": 0,
          "mode": 4
        }
      ]
    },
    {
      "name": "Plane.002_0",
      "primitives": [
        {
          "attributes": {
            "NORMAL": 10,
            "POSITION": 9
          },
          "indices": 11,
          "material": 0,
          "mode": 4
        }
      ]
    }
  ],
  "nodes": [
    {
      "children": [
        1
      ],
      "name": "RootNode (gltf orientation matrix)",
      "rotation": [
        -0.70710678118654746,
        -0,
        -0,
        0.70710678118654757
      ]
    },
    {
      "children": [
        2
      ],
      "name": "RootNode (model correction matrix)"
    },
    {
      "children": [
        3,
        5
      ],
      "name": "Root"
    },
    {
      "children": [
        4
      ],
      "name": "Point"
    },
    {
      "name": "Point"
    },
    {
      "children": [
        6,
        7,
        8,
        9
      ],
      "name": "Plane.002",
      "scale": [
        1.0243200063705444,
        1.0243200063705444,
        1.0243200063705444
      ],
      "translation": [
        0,
        0.015069999732077122,
        0
      ]
    },
    {
      "mesh": 0,
      "name": "Plane.002_0"
    },
    {
      "mesh": 1,
      "name": "Plane.002_0"
    },
    {
      "mesh": 2,
      "name": "Plane.002_0"
    },
    {
      "mesh": 3,
      "name": "Plane.002_0"
    }
  ],
  "scene": 0,
  "scenes": [
    {
      "name": "OSG_Scene",
      "nodes": [
        0
      ]
    }
  ]
}

